<?xml version="1.0" encoding="utf-8"?>
<!-- Generator: Adobe Illustrator 20.0.0, SVG Export Plug-In . SVG Version: 6.00 Build 0)  -->
<svg version="1.1" id="Layer_1" xmlns="http://www.w3.org/2000/svg" xmlns:xlink="http://www.w3.org/1999/xlink" x="0px" y="0px"
	 viewBox="0 0 297.7 244.5" style="enable-background:new 0 0 297.7 244.5;" xml:space="preserve">
<style type="text/css">
	.st0{fill:#1A1A18;stroke:#000000;stroke-width:0.4252;stroke-miterlimit:10;}
	.st1{fill:#1A1A18;}
	.st2{fill-rule:evenodd;clip-rule:evenodd;}
</style>
<g>
	<path class="st0" d="M291.2,79.8c-20.8-60.2-86.1-93.5-145.5-74.3l-8.6,3.2l-14.5,5.9l-0.7,0.5c-6.2,2.1-12.2,4.8-17.8,7.9l-22.6,5
		c-0.6,0.1-1.3,0.3-1.9,0.5c-0.2,0-0.4,0.1-0.5,0.1c-0.6,0.1-1.2,0.3-1.8,0.5c-0.3-0.1-0.6-0.1-0.9,0c-0.5,0.1-1,0.3-1.6,0.4
		c-0.3,0.1-0.7,0.2-1,0.3c-0.9,0.3-1.7,0.5-2.6,0.8c-4.1,1.3-8,2.9-11.8,4.8c-19.8,9.5-36.1,25.1-46.7,45c-0.4,0.8-0.8,1.5-1.2,2.3
		C-1.6,109.2-3.6,139.6,6,168.2c0.5,1.5,1,2.9,1.5,4.3v0.1c1.6,4.2,3.5,8.3,5.5,12.2c0.3,0.6,0.6,1.1,0.9,1.7
		c0.4,0.7,0.8,1.5,1.2,2.2c19.8,34.5,56.1,55.7,94.1,55.7c9.3,0,18.8-1.3,28.1-4c1.3-0.4,2.6-0.8,3.9-1.2l18.5-4.9
		c10.1,0.4,20.1-0.7,29.9-3c2.7-0.6,5.4-1.4,8-2.3l2-0.7c7.2-0.9,14.4-2.4,21.4-4.7c28.4-9.2,51.4-28.9,64.7-55.6
		C299.5,140.7,301.4,109.3,291.2,79.8z M159.8,232.2h-0.2l-3.8,1c19.4-9.9,35.2-25.9,45.3-46.1c13.2-26.5,15.2-56.8,5.5-85.5
		c-15.8-47-59.2-76.9-104.8-76.2l2.9-0.6l0.3-0.1c0.3-0.2,0.7-0.4,1-0.5l23.1-5.1l0,0l5.1-1.1l0,0c8.7-1.7,17.5-2.3,26.1-1.8
		c43,2.4,82.2,31.1,97,74c9.5,27.5,7.7,56.6-5,82.1c-12.4,24.8-33.7,43.1-60,51.6c-1.7,0.5-3.4,1.1-5.1,1.5l-7.3,1.9l-0.9-0.1v0.3
		l-8.2,2.2l-9.8,2.6C160.5,232.2,160.1,232.2,159.8,232.2z M187.5,226.7c1.7-0.5,3.5-1,5.2-1.5c26.7-8.6,48.3-27.2,60.8-52.3
		c1.6-3.2,3-6.5,4.3-9.8c4.4-11.7,6.7-23.9,6.9-36.3c0.1-12.4-1.9-24.9-6.1-37c-0.4-1.3-0.9-2.6-1.4-3.8c-0.1-0.2-0.1-0.4-0.2-0.6
		c-0.5-1.2-1-2.4-1.5-3.6c-0.1-0.2-0.2-0.4-0.3-0.7c-0.5-1.2-1.1-2.3-1.6-3.5c-0.1-0.2-0.2-0.3-0.3-0.5c-0.6-1.2-1.2-2.3-1.8-3.5
		c0,0,0-0.1-0.1-0.1c-0.6-1.2-1.3-2.3-1.9-3.4c-0.1-0.2-0.2-0.4-0.3-0.6c-0.6-1.1-1.3-2.1-2-3.2c-0.1-0.2-0.3-0.4-0.4-0.6
		c-0.7-1.1-1.4-2.1-2.1-3.1c-0.1-0.2-0.2-0.3-0.3-0.5c-0.7-1-1.4-2-2.2-3c-0.1-0.1-0.1-0.1-0.2-0.2c-0.8-1-1.6-2-2.4-3
		c-0.1-0.2-0.3-0.4-0.4-0.5c-0.8-0.9-1.6-1.9-2.4-2.8c-0.2-0.2-0.3-0.4-0.5-0.6c-0.8-0.9-1.6-1.8-2.5-2.7c-0.1-0.1-0.3-0.3-0.4-0.4
		c-0.8-0.9-1.7-1.7-2.5-2.5c-0.1-0.1-0.2-0.2-0.3-0.3c-0.9-0.9-1.8-1.7-2.7-2.5c-0.2-0.2-0.4-0.3-0.6-0.5c-0.9-0.8-1.8-1.6-2.7-2.3
		c-0.2-0.2-0.4-0.3-0.6-0.5c-0.9-0.8-1.9-1.5-2.8-2.3c-0.2-0.1-0.3-0.2-0.5-0.4c-0.9-0.7-1.8-1.4-2.7-2c-0.2-0.1-0.3-0.2-0.4-0.3
		c-1-0.7-2-1.4-3-2c-0.2-0.2-0.5-0.3-0.7-0.5c-1-0.6-2-1.3-3-1.9c-0.2-0.1-0.5-0.3-0.7-0.4c-1-0.6-2-1.2-3.1-1.8
		c-0.2-0.1-0.4-0.2-0.5-0.3c-1-0.5-1.9-1-2.9-1.6c-0.2-0.1-0.4-0.2-0.6-0.3c-1-0.5-2.1-1-3.2-1.5c-0.3-0.1-0.5-0.3-0.8-0.4
		c-1-0.5-2.1-0.9-3.2-1.4c-0.3-0.1-0.5-0.2-0.8-0.3c-1.1-0.4-2.2-0.9-3.3-1.3c-0.2-0.1-0.4-0.1-0.6-0.2c-1-0.4-2-0.7-3.1-1.1
		c-0.2-0.1-0.5-0.2-0.7-0.2c-1.1-0.4-2.2-0.7-3.3-1c-0.3-0.1-0.6-0.2-0.9-0.3c-1.1-0.3-2.2-0.6-3.3-0.9c-0.3-0.1-0.6-0.1-0.9-0.2
		c-1.1-0.3-2.3-0.5-3.5-0.8c-0.2,0-0.4-0.1-0.5-0.1c-1.1-0.2-2.2-0.4-3.2-0.6c-0.3,0-0.5-0.1-0.8-0.1c-1.1-0.2-2.3-0.3-3.5-0.5
		c-0.3,0-0.6-0.1-0.9-0.1c-1.2-0.1-2.3-0.3-3.5-0.3c-0.3,0-0.6,0-0.9-0.1c-1.2-0.1-2.3-0.2-3.5-0.2c-0.2,0-0.4,0-0.5,0
		c-1.1,0-2.3-0.1-3.4-0.1c-0.2,0-0.3,0-0.5,0c-0.1,0-0.3,0-0.4,0c-0.3,0-0.5,0-0.8,0c-0.6,0-1.1,0-1.7,0c-0.3,0-0.5,0-0.8,0
		c-0.6,0-1.1,0-1.7,0.1c-0.3,0-0.6,0-0.8,0.1c-0.6,0-1.1,0.1-1.7,0.1c-0.3,0-0.6,0-0.9,0.1c-0.5,0-1.1,0.1-1.6,0.1
		c-0.3,0-0.6,0.1-0.9,0.1c-0.5,0.1-1.1,0.1-1.6,0.2c-0.3,0-0.7,0.1-1,0.1c-0.5,0.1-1,0.1-1.5,0.2c-0.4,0.1-0.7,0.1-1.1,0.2
		c-0.5,0.1-0.9,0.1-1.4,0.2c-0.6,0.1-1.3,0.2-1.9,0.3c-0.2,0-0.4,0.1-0.6,0.1l0,0l0,0l0,0c-1.7,0.3-3.4,0.7-5.1,1.1l-17.7,3.9
		c4.3-2,8.7-3.8,13.2-5.3l1.6-0.5l-0.1-0.3l2.1-0.6c27.4-7.8,56.7-4.6,82.4,9.1C236,37.7,255.5,60.5,265,88
		c9.6,27.9,8.1,57.6-4.3,83.7c-1.5,3.3-3.2,6.4-5.1,9.5c-0.9,1.5-1.9,3-2.9,4.5c-0.5,0.7-1,1.5-1.5,2.2
		c-12.4,17.5-29.8,30.8-50.4,38.3c-0.5,0.1-1,0.1-1.5,0.2l-2.3,0.7c-2.6,0.8-5.2,1.6-7.9,2.2c-7.5,1.8-15.2,2.8-22.9,3L187.5,226.7z
		 M207.4,225.1c1-0.4,1.9-0.8,2.9-1.3c0.2-0.1,0.3-0.2,0.5-0.2c1.4-0.6,2.7-1.3,4.1-2c0.1,0,0.2-0.1,0.3-0.1
		c1.4-0.7,2.7-1.5,4.1-2.3h0.1c1.3-0.8,2.6-1.6,3.9-2.4c0.1-0.1,0.3-0.2,0.4-0.2c1.2-0.8,2.4-1.6,3.6-2.5c0.2-0.1,0.3-0.2,0.5-0.4
		c1.2-0.8,2.3-1.7,3.4-2.6c0.2-0.1,0.4-0.3,0.5-0.4c1.1-0.9,2.2-1.8,3.3-2.7c0.2-0.1,0.3-0.3,0.5-0.4c1.1-1,2.2-1.9,3.2-2.9
		c0.1-0.1,0.2-0.2,0.3-0.3c1.1-1,2.2-2.1,3.2-3.2l0.1-0.1c1.1-1.1,2.1-2.2,3.1-3.4c0.1-0.1,0.1-0.1,0.2-0.2c1-1.1,1.9-2.3,2.9-3.5
		c0.1-0.1,0.2-0.3,0.3-0.4c0.9-1.1,1.8-2.3,2.6-3.5c0.1-0.2,0.3-0.4,0.4-0.6c0.8-1.2,1.7-2.4,2.5-3.6c0.1-0.2,0.3-0.4,0.4-0.6
		c0.8-1.2,1.6-2.5,2.3-3.7c0.1-0.2,0.2-0.4,0.3-0.5c0.8-1.3,1.5-2.6,2.2-3.9c0.1-0.1,0.1-0.3,0.2-0.4c0.7-1.4,1.5-2.8,2.1-4.2
		c12.6-26.4,14.1-56.5,4.4-84.8c-9.6-27.9-29.3-51-55.4-64.8c-0.9-0.5-1.9-1-2.9-1.5c-0.3-0.1-0.6-0.3-0.9-0.4
		c-0.7-0.3-1.4-0.7-2.1-1c-0.3-0.1-0.6-0.3-1-0.4c-0.7-0.3-1.5-0.7-2.2-1c-0.2-0.1-0.5-0.2-0.7-0.3c-1-0.4-1.9-0.8-2.9-1.2
		c-0.2-0.1-0.5-0.2-0.7-0.3c-0.8-0.3-1.5-0.6-2.3-0.8c-0.3-0.1-0.7-0.2-1-0.4c-0.7-0.2-1.4-0.5-2.1-0.7c-0.3-0.1-0.6-0.2-0.9-0.3
		c-1-0.3-1.9-0.6-2.9-0.9h-0.1c-1-0.3-2-0.5-3-0.8c-0.3-0.1-0.6-0.2-1-0.2c-0.7-0.2-1.4-0.3-2.1-0.5c-0.4-0.1-0.7-0.2-1.1-0.2
		c-0.8-0.2-1.5-0.3-2.3-0.5c-0.3-0.1-0.5-0.1-0.8-0.2c-1-0.2-2-0.4-3-0.5c-0.3,0-0.5-0.1-0.8-0.1c-0.8-0.1-1.5-0.2-2.3-0.3
		c-0.4,0-0.7-0.1-1.1-0.1c-0.7-0.1-1.4-0.2-2.1-0.2c-0.3,0-0.7-0.1-1-0.1c-0.9-0.1-1.9-0.2-2.8-0.2c-0.1,0-0.3,0-0.4,0
		c-1-0.1-2-0.1-3-0.1c-0.3,0-0.7,0-1,0c-0.7,0-1.4,0-2.1,0c-0.2,0-0.4,0-0.6,0c-0.2,0-0.4,0-0.6,0c-0.6,0-1.1,0-1.7,0
		c-0.4,0-0.8,0-1.2,0c-0.6,0-1.2,0-1.8,0.1c-0.4,0-0.7,0-1.1,0.1c-0.9,0.1-1.9,0.1-2.8,0.2c-0.3,0-0.5,0.1-0.8,0.1
		c-0.7,0.1-1.4,0.1-2.1,0.2c-0.4,0-0.8,0.1-1.2,0.1c-0.6,0.1-1.1,0.1-1.7,0.2c-0.4,0.1-0.8,0.1-1.3,0.2c-0.5,0.1-1.1,0.2-1.6,0.3
		c-0.4,0.1-0.8,0.1-1.3,0.2c-0.6,0.1-1.1,0.2-1.7,0.3c-0.4,0.1-0.8,0.2-1.2,0.2c-0.2,0-0.4,0.1-0.6,0.1l2.7-1.1l8.5-3.1
		c58.4-18.8,122.4,13.9,142.8,73c10,29,8.1,59.8-5.3,86.7c-13.1,26.2-35.6,45.5-63.5,54.5C216.1,223.1,211.8,224.2,207.4,225.1z
		 M71.9,32.7c0.8-0.3,1.7-0.5,2.5-0.8c0.3-0.1,0.7-0.2,1-0.3c0.5-0.2,1-0.3,1.6-0.4c0.3-0.1,0.5-0.1,0.8-0.2
		c0.6-0.2,1.2-0.3,1.8-0.5c0.1,0,0.2-0.1,0.3-0.1c51.9-12.6,106.7,18.3,124.7,72c9.5,28.1,7.5,57.9-5.4,83.8
		c-12.2,24.5-33,42.6-58.5,51c-48.9,16.2-102.1-7.6-126-53.9c18.8,35.2,55.2,56.9,93.2,56.9c10.4,0,20.9-1.6,31.1-5
		c25.4-8.4,46.1-26.3,58.2-50.5c12.7-25.4,14.5-54.5,5.2-82c-18.7-55.3-77.7-86-131.4-68.3c-23.6,7.7-43.1,23.8-55.4,45.4
		C28,57.3,47.8,40.7,71.9,32.7z M71.4,35.7c53-17.4,111.2,12.9,129.8,67.5c9.2,27.1,7.4,55.8-5.1,80.9
		c-11.9,23.9-32.3,41.6-57.4,49.8c-10.2,3.3-20.5,4.9-30.7,4.9c-43.1,0-84.1-28.3-99.1-72.4c-9.2-27.1-7.4-55.8,5.1-80.9
		C26,61.7,46.3,44,71.4,35.7z"/>
	
		<rect x="182.4" y="150.2" transform="matrix(0.4223 -0.9065 0.9065 0.4223 -45.4738 263.305)" class="st1" width="2.8" height="34.3"/>
	
		<rect x="166.1" y="104.6" transform="matrix(0.9574 -0.2887 0.2887 0.9574 -22.809 57.3446)" class="st1" width="33.8" height="2.8"/>
	
		<rect x="134.6" y="200.8" transform="matrix(0.9485 -0.3168 0.3168 0.9485 -61.5823 54.2345)" class="st1" width="2.8" height="31.4"/>
	
		<rect x="57" y="213.6" transform="matrix(0.4016 -0.9158 0.9158 0.4016 -153.9393 194.4435)" class="st1" width="29.6" height="2.8"/>
	
		<rect x="9.9" y="161.5" transform="matrix(0.9607 -0.2777 0.2777 0.9607 -44.2723 13.2101)" class="st1" width="29.2" height="2.8"/>
	
		<rect x="26.1" y="84.5" transform="matrix(0.4157 -0.9095 0.9095 0.4157 -73.907 82.8427)" class="st1" width="2.8" height="28.9"/>
	<path class="st0" d="M39.6,157.6c9.9,29.5,36.9,48.3,65.5,48.3c6.8,0,13.6-1.1,20.3-3.3c16.5-5.5,29.9-17.2,37.8-33
		c8.4-16.8,9.6-36,3.5-54.2C154.5,79.1,116,58.9,81,70.5c-16.5,5.5-30,17.2-37.9,33C34.8,120.3,33.5,139.5,39.6,157.6z M44.4,104.1
		c7.7-15.5,20.9-26.9,37-32.3c6.6-2.2,13.3-3.2,19.9-3.2c27.9,0,54.4,18.5,64.1,47.3c6,17.8,4.8,36.6-3.4,53.1
		c-7.7,15.5-20.9,26.9-37,32.3c-34.3,11.4-72-8.4-84-44.1C35,139.4,36.2,120.6,44.4,104.1z"/>
	<path class="st0" d="M105.5,194.6c5.7,0,11.5-0.9,17.1-2.8c13.9-4.6,25.2-14.5,31.9-27.8c7-14.1,8.1-30.3,3-45.6
		c-10.3-30.7-42.7-47.7-72.2-37.9C71.3,85.1,60,95,53.4,108.3c-7,14.1-8.1,30.3-3,45.6C58.8,178.7,81.5,194.6,105.5,194.6z
		 M54.6,109c6.5-13,17.5-22.6,31-27.1c28.8-9.5,60.4,7.1,70.4,37c5,14.9,4,30.7-2.9,44.5c-6.5,13-17.5,22.6-31,27.1
		c-28.8,9.5-60.4-7.1-70.4-37C46.7,138.5,47.8,122.7,54.6,109z"/>
</g>
<g>
	<path class="st1" d="M19.1,141.7c2.7-4.8,5.4-9.5,8-14.3c0.2-0.4,0.1-1-0.3-1.2s-0.9-0.1-1.2,0.3c-2.2,3.8-4.3,7.7-6.5,11.5
		c-1.8-3.7-3.7-7.4-5.5-11c-0.2-0.5-0.7-0.6-1.2-0.4c-0.4,0.2-0.6,0.8-0.4,1.2C14.5,132.4,16.8,137,19.1,141.7z"/>
	<path class="st1" d="M182.8,143c1.9-3.8,3.8-7.6,5.7-11.3c2.4,4,4.8,8,7.2,12c0.3,0.5,0.8,0.6,1.3,0.4c0.4-0.3,0.6-0.8,0.3-1.3
		c-3-5-6-10-8.9-14.9c-2.4,4.8-4.8,9.5-7.2,14.3c-0.2,0.4-0.1,1,0.4,1.2C182,143.6,182.6,143.5,182.8,143z"/>
	<path class="st1" d="M102.6,217c-1.4,0-2.6,0.5-3.4,1.4c-0.9,0.9-1.4,2.1-1.4,3.5s0.6,2.6,1.5,3.6c0.9,0.9,2.1,1.5,3.5,1.5
		c1.3,0,2.5-0.5,3.4-1.3c0.9-0.9,1.4-2.1,1.4-3.5s-0.6-2.6-1.5-3.6C105.2,217.6,104,217.1,102.6,217z M104.8,224.3
		c-0.5,0.6-1.3,0.9-2.1,0.9c-0.9,0-1.6-0.4-2.2-1s-0.9-1.4-0.9-2.2c0-0.9,0.3-1.6,0.9-2.2c0.5-0.6,1.3-0.9,2.2-0.9
		c0.8,0,1.6,0.4,2.1,1c0.6,0.6,0.9,1.4,0.9,2.3C105.7,223,105.4,223.7,104.8,224.3z"/>
	<path class="st1" d="M91.2,154.5c-1.9-0.1-3.8-0.3-5.7-0.4c-1.9-0.1-3.9-0.3-5.8-0.4c-0.2,0-1.9,1.2-2,1.8s1.3,2.1,1.4,2.1
		c1.9,0.2,3.9,0.3,5.8,0.5c1.9,0.1,3.8,0.3,5.8,0.4c0.2,0,1.9-1.2,1.9-1.9C92.7,156.1,91.3,154.6,91.2,154.5z"/>
	<path class="st1" d="M84.1,122.6c1.9,0.1,3.7,0.1,5.6,0.2s3.7,0.1,5.6,0.2c0.1,0,1.8-1.2,1.9-1.9c0-0.6-1.3-2-1.4-2
		c-1.9-0.1-3.7-0.1-5.6-0.1c-1.8-0.1-3.7-0.1-5.6-0.2c-0.1,0-1.8,1.2-1.9,1.8C82.7,121.2,84,122.6,84.1,122.6z"/>
	<path class="st1" d="M117.7,139.5c1-0.4,2-1.8,2-1.9c0.3-2.7,0.6-5.5,0.8-8.2c0.3-2.7,0.5-5.4,0.8-8.2c-1.3,1.2-3.4,2.7-3.9,3.7
		c-0.6,1.2-0.4,4.2-0.6,6.3s-1,5-0.7,6.3C116.4,138.5,117.7,139.5,117.7,139.5z"/>
	<path class="st1" d="M95.8,123.6c-0.3,2-0.5,4.1-0.8,6.1c-0.3,2.1-0.6,4.1-0.8,6.2c0,0.1,1.1,1.8,1.5,1.9c0.5,0,2-1.6,2-1.7
		c0.3-2.1,0.5-4.1,0.8-6.2s0.5-4.1,0.8-6.2c0-0.2-0.5-0.8-1.5-1.8C96.5,122.9,95.8,123.5,95.8,123.6z"/>
	<path class="st1" d="M117.4,160.1c0.6-0.5,0.6-5.6,0.9-8.4c0.3-2.8,1.3-6.6,0.9-8.4c-0.3-1-1.5-2.1-1.6-2.1c-1.3,1.2-2,1.8-2,1.9
		c-0.2,2.1-0.5,4.2-0.7,6.3s-1,5-0.7,6.4C114.8,158,117.4,160.1,117.4,160.1z"/>
	<path class="st1" d="M81.5,140c0.9,0.5,3.9,0.2,5.8,0.3s4.7,0.7,5.8,0.3c0.4-0.2,1.7-1.5,1.8-1.9c0-0.4-0.9-1.8-1.3-2
		c-1-0.5-3.9-0.2-5.8-0.3s-3.9-0.2-5.8-0.3c-0.5,0.5-1.7,1.4-1.8,1.8C80.2,138.3,81.2,139.8,81.5,140z"/>
	<path class="st1" d="M77.1,154.6c0.5,0.1,2-1.5,2.1-1.7c0.3-2,0.6-4.1,0.9-6.2c0.3-2.1,0.6-4.1,0.9-6.1c0-0.2-0.5-0.8-1.5-1.9
		c-1.3,1-2,1.5-2,1.7c-0.3,2-0.6,4.1-0.9,6.2c-0.3,2-0.6,4.1-0.9,6.1C75.6,152.8,76.6,154.5,77.1,154.6z"/>
	<path class="st1" d="M131.2,133c0.3-0.3,0.2-3.7,0.3-5.7c0.1-1.9-0.1-5.5,0.3-5.9c0.1-0.1,1.6,0,2.4,0c0.8,0,2.3,0.1,2.4,0
		c0,0-1.1-1.9-1.6-2.2c-0.2-0.1-1,0-1.5,0s-1.1,0-1.6,0c-0.7,0-1.4,0-2,0c0,0.7-0.1,1.4-0.1,2.2c-0.1,2-0.2,4-0.3,5.9
		c-0.1,1.9-0.7,5.3-0.3,5.7C129.3,133,131,133.1,131.2,133z"/>
	<path class="st1" d="M128.1,123.9c0.2-0.2,0.4-3.1,0.1-3.3c-0.1-0.1-1.7,0-2.5,0c-0.1,1.1-0.4,3.1-0.1,3.3
		C125.8,124,128,124.1,128.1,123.9z"/>
	<path class="st1" d="M133.9,131c-0.6,0-1.9-0.1-2,0s-0.1,1.3-0.1,2c0.8,0,1.9,0.2,2.3,0c0.5-0.2,1.8-1.9,1.8-1.9
		C135.9,131,134.6,131,133.9,131z"/>
</g>
<g>
	<path class="st2" d="M60.7,58.9c1.1,0,2.3,0,3.4,0c0.6,0,0.7-0.1,0.8-0.7c0.2-1,0.5-2,0.7-3c0.2-1,0.5-2,0.7-3
		c0.1-0.5,0.1-0.6-0.5-0.6c-2.2,0-4.5,0-6.8,0c-0.6,0-0.7,0.1-0.8,0.7c-0.3,1-0.5,2-0.8,3c-0.2,1-0.5,2-0.7,3
		c-0.1,0.5,0,0.6,0.5,0.6C58.4,58.9,59.6,58.9,60.7,58.9 M71.5,44.7c-0.5,2.2-1.1,4.5-1.6,6.7c-0.5,2.3-1.1,4.5-1.6,6.8
		c-0.2,0.7-0.4,1.5-0.5,2.3c-0.1,0.3-0.2,0.4-0.4,0.4c-4.1,0-8.1,0-12.2-0.1c-0.2,0-0.5,0-0.7-0.1c-0.6-0.1-1.1-0.4-1.2-0.9
		c-0.1-0.4,0.1-1.1,0.1-1.1c0.3-1.2,0.6-2.4,0.9-3.6c0.3-1.2,0.6-2.4,0.9-3.6c0.3-1,0.8-1.6,1.8-1.7c0.4-0.1,0.8-0.1,1.2-0.1
		c2.8,0,5.6,0,8.4,0c0.3,0,0.5-0.1,0.5-0.4c0.2-0.8,0.4-1.5,0.5-2.3c0.2-0.8,0.4-1.5,0.5-2.3C69.3,44.7,70.4,44.7,71.5,44.7z"/>
	<path class="st2" d="M75.1,55c0.1,0,0.1,0,0.2,0c2.6,0,5.2,0,7.8,0c0.1,0,0.3-0.2,0.3-0.3c0.2-0.9,0.4-1.8,0.6-2.6
		c0.1-0.4,0-0.5-0.4-0.5c-2.4,0-4.8,0-7.1,0c-0.3,0-0.6,0.2-0.6,0.5C75.5,53,75.3,54,75.1,55 M85.8,59c-0.1,0.6-0.2,1.1-0.3,1.6
		c0,0.3-0.2,0.3-0.4,0.3c-1.3,0-2.6,0-3.8,0c-2.8,0-5.6,0-8.3,0c-0.4,0-0.8,0-1.2-0.2c-0.6-0.2-0.9-0.6-0.9-1.3
		c0-0.4,0.1-0.8,0.1-1.1c0.3-1.1,0.5-2.2,0.8-3.3c0.3-1.1,0.5-2.2,0.8-3.3c0.3-1.2,0.9-1.8,2.1-1.9c0.3,0,0.7-0.1,1-0.1
		c3.2,0,6.5,0,9.8,0c0.1,0,0.3,0,0.4,0c1.3,0.1,1.8,0.8,1.6,2.1c-0.1,0.8-0.3,1.6-0.5,2.3c-0.2,0.8-0.4,1.5-0.5,2.3
		c-0.1,0.3-0.2,0.3-0.4,0.3c-1.5,0-3,0-4.4,0c-2.2,0-4.3,0-6.5,0c-0.3,0-0.4,0.1-0.5,0.4c-0.1,0.4-0.2,0.8-0.3,1.2
		c-0.1,0.6-0.1,0.7,0.6,0.7c1,0,2,0,3,0c2.5,0,4.9,0,7.4,0C85.5,59,85.6,59,85.8,59z"/>
	<path class="st2" d="M142.5,51.7c-1.2,0-2.4,0-3.7,0c-0.6,0-0.7,0.1-0.8,0.7c-0.2,1-0.3,2.1-0.5,3.1c-0.2,1-0.3,2.1-0.5,3.1
		c-0.1,0.5,0,0.6,0.5,0.6c2.5,0,5.1,0,7.6,0c0.4,0,0.6-0.2,0.7-0.6c0.2-1.1,0.3-2.1,0.5-3.2c0.2-1,0.3-2.1,0.5-3.2
		c0.1-0.5-0.1-0.6-0.6-0.6C144.9,51.7,143.7,51.7,142.5,51.7 M141.2,61.2c-1.8,0-3.6,0-5.4,0c-0.4,0-0.9-0.1-1.3-0.2
		c-0.6-0.2-0.9-0.7-1-1.3c0-0.4,0-0.8,0-1.1c0.2-1.1,0.4-2.3,0.5-3.4c0.2-1.1,0.4-2.2,0.6-3.3c0.3-1.6,0.9-2.2,2.5-2.2
		c3.7,0,7.4,0,11.2,0c0.3,0,0.5,0,0.8,0.1c0.6,0.2,1,0.6,1.1,1.2c0,0.4,0,0.8,0,1.2c-0.2,1.1-0.4,2.3-0.5,3.4
		c-0.2,1.1-0.3,2.3-0.5,3.5c0,0.1-0.1,0.2-0.1,0.4c-0.2,1.1-0.8,1.7-1.9,1.7C145.3,61.2,143.2,61.2,141.2,61.2
		C141.2,61.2,141.2,61.2,141.2,61.2z"/>
	<path class="st2" d="M109.3,59.1c1.2,0,2.4,0,3.6,0c0.5,0,0.7-0.1,0.8-0.7c0.2-1,0.4-2,0.6-3c0.2-1,0.4-2,0.6-3
		c0.1-0.6,0-0.7-0.6-0.7c-2.3,0-4.6,0-7,0c-0.8,0-0.9,0-1,0.8c-0.2,1-0.4,2-0.6,3c-0.2,1-0.4,2-0.6,2.9c-0.1,0.6,0,0.7,0.6,0.7
		C106.9,59.1,108.1,59.1,109.3,59.1 M109.1,61.1c-1.7,0-3.4,0-5.1,0c-0.2,0-0.3,0-0.5,0c-1.4-0.2-2-0.9-1.7-2.2
		c0.2-0.9,0.3-1.8,0.5-2.7c0.2-0.9,0.4-1.8,0.6-2.7c0.1-0.5,0.2-1,0.3-1.5c0.3-1.6,1-2.2,2.6-2.2c3.6,0,7.2,0,10.8,0
		c1.4,0,2.1,0.8,1.9,2.2c0,0,0,0.1,0,0.2c-0.2,1.2-0.4,2.3-0.6,3.5c-0.2,1.2-0.4,2.3-0.6,3.5c0,0.2-0.1,0.4-0.1,0.6
		c-0.2,0.8-0.8,1.3-1.6,1.4c-0.5,0-0.9,0.1-1.4,0.1C112.4,61.1,110.8,61.1,109.1,61.1z"/>
	<path class="st2" d="M88.7,49.6c0.8,0,1.6,0,2.3,0c1,0,1,0,1.3,1c0.3,1.1,0.6,2.3,0.9,3.4c0.3,1.1,0.6,2.3,0.9,3.4
		c0,0.1,0,0.2,0.1,0.3c0.1-0.2,0.2-0.3,0.2-0.4c0.7-1.2,1.5-2.5,2.2-3.7c0.7-1.2,1.5-2.5,2.2-3.7c0.2-0.3,0.4-0.4,0.7-0.3
		c0.8,0,1.7,0,2.5,0c-0.1,0.2-0.1,0.3-0.2,0.3c-1.1,1.8-2.2,3.5-3.3,5.3c-1.1,1.8-2.2,3.6-3.3,5.3c-0.1,0.2-0.3,0.3-0.6,0.3
		c-0.8,0-1.6,0-2.4,0c-0.3,0-0.5-0.1-0.5-0.4c-0.4-1.6-0.9-3.2-1.3-4.8c-0.4-1.6-0.9-3.1-1.3-4.7C89,50.6,88.9,50.1,88.7,49.6"/>
	<path class="st2" d="M125.6,49.6c-0.2,0.8-0.3,1.6-0.4,2.3c-0.1,0.8-0.3,1.5-0.4,2.3c-0.1,0.7-0.3,1.4-0.4,2.2
		c-0.1,0.7-0.3,1.5-0.4,2.2c-0.1,0.5,0,0.5,0.4,0.5c2.5,0,4.9,0,7.4,0c0.2,0,0.3,0,0.5,0c-0.1,0.6-0.2,1.3-0.3,1.9
		c0,0.1-0.3,0.2-0.4,0.2c-2.9,0-5.7,0-8.6,0c-0.5,0-1,0-1.5,0c-1,0-1.5-0.6-1.3-1.6c0.3-1.6,0.6-3.2,0.9-4.8
		c0.3-1.6,0.6-3.2,0.8-4.7c0.1-0.2,0.1-0.4,0.4-0.4C123.4,49.6,124.5,49.6,125.6,49.6"/>
</g>
</svg>
