<?xml version="1.0" encoding="utf-8"?>
<!-- Generator: Adobe Illustrator 21.0.0, SVG Export Plug-In . SVG Version: 6.00 Build 0)  -->
<svg version="1.1" id="Layer_1" xmlns="http://www.w3.org/2000/svg" xmlns:xlink="http://www.w3.org/1999/xlink" x="0px" y="0px"
	 viewBox="0 0 112.4 348.7" style="enable-background:new 0 0 112.4 348.7;" xml:space="preserve">
<style type="text/css">
	.st0{fill:#1A1A18;}
</style>
<g>
	<path class="st0" d="M63.3,345.9H49.2c-26.2,0-47.4-21.2-47.4-47.4V50.2C1.8,24,23,2.8,49.2,2.8h14.2c26.1,0,47.4,21.2,47.4,47.4
		v248.4C110.7,324.7,89.5,345.9,63.3,345.9z M49.2,5.6c-24.6,0-44.5,20-44.5,44.5v248.4c0,24.6,20,44.5,44.5,44.5h14.2
		c24.6,0,44.5-20,44.5-44.5V50.2c0-24.6-20-44.5-44.5-44.5H49.2V5.6z"/>
</g>
<g>
	<path class="st0" d="M63.3,336.7H49.2c-21,0-38.2-17.1-38.2-38.2V50.2C11,29.2,28.1,12,49.2,12h14.2c21,0,38.2,17.1,38.2,38.2
		v248.4C101.5,319.6,84.4,336.7,63.3,336.7z M49.2,13.4c-20.3,0-36.7,16.5-36.7,36.7v248.4c0,20.3,16.5,36.7,36.7,36.7h14.2
		c20.3,0,36.7-16.5,36.7-36.7V50.2c0-20.3-16.5-36.7-36.7-36.7H49.2V13.4z"/>
</g>
<g>
	<rect x="21.6" y="56.4" width="69.2" height="41.3"/>
	<rect x="16.7" y="56.4" width="3.9" height="41.3"/>
	<rect x="91.9" y="56.4" width="3.9" height="41.3"/>
</g>
<g>
	<path d="M40.8,106.9c-0.6,2.5-1.2,5.1-1.9,7.6c-0.1,0.4-0.2,0.8-0.3,1.3c0,0.2-0.1,0.2-0.2,0.2c-2.2,0-4.3,0-6.5,0
		c-0.1,0-0.3,0-0.4,0c-0.3-0.1-0.6-0.2-0.6-0.5c-0.1-0.2,0.1-0.6,0.1-0.6c0.3-1.4,0.6-2.7,1-4c0.1-0.5,0.4-0.9,1-1
		c0.2,0,0.4-0.1,0.6-0.1c1.5,0,3,0,4.6,0c0.2,0,0.2-0.1,0.3-0.2c0.2-0.9,0.4-1.7,0.6-2.6C39.6,106.9,40.2,106.9,40.8,106.9z
		 M34.9,114.9c0.6,0,1.2,0,1.8,0c0.3,0,0.4,0,0.4-0.4c0.3-1.1,0.5-2.2,0.8-3.4c0.1-0.3,0-0.3-0.2-0.3c-1.2,0-2.4,0-3.6,0
		c-0.3,0-0.4,0-0.5,0.4c-0.3,1.1-0.5,2.2-0.8,3.4c-0.1,0.3,0,0.3,0.2,0.3C33.7,114.9,34.3,114.9,34.9,114.9z"/>
	<path d="M48.2,114.9c-0.1,0.3-0.2,0.6-0.2,0.9c0,0.2-0.1,0.2-0.2,0.2c-0.7,0-1.4,0-2,0c-1.5,0-2.9,0-4.4,0c-0.2,0-0.4,0-0.6-0.1
		c-0.3-0.1-0.5-0.3-0.5-0.7c0-0.2,0-0.4,0.1-0.6c0.3-1.2,0.6-2.5,0.9-3.7c0.2-0.7,0.5-1,1.1-1.1c0.2,0,0.4,0,0.5,0
		c1.7,0,3.5,0,5.2,0c0.1,0,0.2,0,0.2,0c0.7,0.1,0.9,0.5,0.8,1.2c-0.2,0.9-0.4,1.7-0.6,2.6c0,0.2-0.1,0.2-0.2,0.2c-0.8,0-1.6,0-2.3,0
		c-1.1,0-2.3,0-3.4,0c-0.2,0-0.2,0-0.3,0.2c0,0.2-0.1,0.4-0.2,0.7c-0.1,0.3,0,0.4,0.3,0.4c0.5,0,1.1,0,1.6,0c1.3,0,2.6,0,3.9,0
		C48,114.9,48.1,114.9,48.2,114.9z M42.6,112.7C42.7,112.7,42.7,112.7,42.6,112.7c1.5,0,2.9,0,4.2,0c0.1,0,0.1-0.1,0.2-0.2
		c0.1-0.5,0.2-1,0.4-1.5c0.1-0.2,0-0.3-0.2-0.3c-1.3,0-2.5,0-3.8,0c-0.2,0-0.3,0.1-0.3,0.3C42.9,111.6,42.7,112.1,42.6,112.7z"/>
	<path d="M76.5,115.9c-0.9,0-1.8,0-2.7,0c-0.2,0-0.4,0-0.6-0.1c-0.3-0.1-0.4-0.3-0.4-0.7c0-0.2,0-0.4,0.1-0.6
		c0.3-1.2,0.6-2.4,0.9-3.7c0.2-0.9,0.5-1.2,1.4-1.2c1.9,0,3.8,0,5.7,0c0.1,0,0.3,0,0.4,0.1c0.3,0.1,0.5,0.3,0.5,0.7
		c0,0.2,0,0.4-0.1,0.7c-0.3,1.2-0.6,2.5-0.9,3.7c0,0.1,0,0.1-0.1,0.2c-0.1,0.6-0.5,0.9-1,0.9C78.5,115.9,77.5,115.9,76.5,115.9
		L76.5,115.9z M77.7,110.8c-0.6,0-1.2,0-1.9,0c-0.3,0-0.4,0.1-0.4,0.4c-0.3,1.1-0.5,2.3-0.8,3.4c-0.1,0.3,0,0.3,0.2,0.3
		c1.3,0,2.5,0,3.8,0c0.2,0,0.3-0.1,0.4-0.3c0.3-1.1,0.6-2.3,0.8-3.4c0.1-0.3,0-0.3-0.2-0.3C78.9,110.8,78.3,110.8,77.7,110.8z"/>
	<path d="M60.3,115.9c-0.9,0-1.8,0-2.6,0c-0.1,0-0.2,0-0.3,0c-0.7-0.1-1-0.5-0.8-1.2c0.2-1,0.5-2,0.7-3c0.1-0.3,0.1-0.5,0.2-0.8
		c0.2-0.9,0.6-1.2,1.4-1.2c1.9,0,3.7,0,5.6,0c0.7,0,1,0.5,0.9,1.2v0.1c-0.3,1.3-0.6,2.5-0.9,3.8c0,0.1-0.1,0.2-0.1,0.3
		c-0.1,0.5-0.4,0.7-0.9,0.7c-0.2,0-0.5,0-0.7,0C61.9,115.9,61.1,115.9,60.3,115.9z M60.4,114.9c0.6,0,1.2,0,1.9,0
		c0.3,0,0.4-0.1,0.4-0.4c0.3-1.1,0.5-2.2,0.8-3.3c0.1-0.3,0-0.4-0.3-0.4c-1.2,0-2.4,0-3.6,0c-0.4,0-0.4,0-0.6,0.5
		c-0.3,1.1-0.5,2.2-0.8,3.2c-0.1,0.3,0,0.4,0.3,0.4C59.2,114.9,59.8,114.9,60.4,114.9z"/>
	<path d="M50,109.7c0.4,0,0.8,0,1.2,0c0.5,0,0.5,0,0.6,0.6c0.2,1.3,0.5,2.5,0.8,3.8c0,0,0,0.1,0,0.2c0.1-0.1,0.1-0.2,0.1-0.2
		c0.8-1.4,1.7-2.7,2.5-4.1c0.1-0.2,0.2-0.2,0.4-0.2c0.4,0,0.9,0,1.3,0c-0.1,0.1-0.1,0.2-0.1,0.2c-1.2,2-2.5,3.9-3.7,5.9
		c-0.1,0.1-0.2,0.2-0.3,0.2c-0.4,0-0.8,0-1.2,0c-0.2,0-0.2,0-0.3-0.2c-0.4-1.8-0.8-3.5-1.2-5.2C50.1,110.2,50,110,50,109.7z"/>
	<path d="M69.2,109.7c-0.2,0.9-0.4,1.7-0.6,2.5s-0.4,1.6-0.6,2.4c-0.1,0.3,0,0.3,0.2,0.3c1.2,0,2.5,0,3.7,0c0.1,0,0.2,0,0.3,0
		c-0.1,0.3-0.2,0.7-0.2,1c0,0-0.1,0.1-0.2,0.1c-1.5,0-2.9,0-4.4,0c-0.2,0-0.5,0-0.7,0c-0.5,0-0.7-0.3-0.6-0.9
		c0.4-1.7,0.8-3.5,1.3-5.2c0-0.1,0.1-0.2,0.2-0.2C68,109.7,68.6,109.7,69.2,109.7z"/>
</g>
</svg>
