<?xml version="1.0" encoding="utf-8"?>
<!-- Generator: Adobe Illustrator 21.0.0, SVG Export Plug-In . SVG Version: 6.00 Build 0)  -->
<svg version="1.1" id="Layer_1" xmlns="http://www.w3.org/2000/svg" xmlns:xlink="http://www.w3.org/1999/xlink" x="0px" y="0px"
	 viewBox="0 0 253.6 423.5" style="enable-background:new 0 0 253.6 423.5;" xml:space="preserve">
<style type="text/css">
	.st0{fill:#1A1A18;}
	.st1{fill:#0078CC;}
</style>
<g>
	<path class="st0" d="M187.1,53.5c-16.2-16.1-37.6-25-60.3-25s-44.1,8.9-60.3,25c-16.1,16.1-25,37.5-25,60.2
		c0,22.8,8.9,44.2,25,60.3c16.2,16.1,37.6,25,60.3,25s44.1-8.9,60.3-25c16.1-16.1,25-37.5,25-60.3C212.1,91,203.2,69.6,187.1,53.5z
		 M184.4,171.4c-15.4,15.4-35.8,23.8-57.7,23.8s-42.3-8.5-57.7-23.8c-15.4-15.4-23.8-35.9-23.8-57.6S53.7,71.6,69,56.1
		c15.4-15.4,35.9-23.8,57.7-23.8c21.7,0,42.2,8.5,57.7,23.8c15.4,15.5,23.8,35.9,23.8,57.7C208.3,135.5,199.8,156,184.4,171.4z"/>
	<path class="st0" d="M181.1,59.4c-13.9-13.9-33.1-22.5-54.3-22.5s-40.4,8.5-54.3,22.5c-4.1,4.1-7.6,8.6-10.7,13.5v-0.1l-1,1.7
		c-0.1,0.2-0.2,0.3-0.3,0.4l-0.2,0.4c-0.1,0.2-0.2,0.3-0.2,0.4l-0.2,0.4l-0.3,0.4l-0.2,0.4c-0.1,0.2-0.2,0.4-0.3,0.5l-0.2,0.3
		l-0.2,0.4l-0.1,0.1l-0.1,0.2h-0.1c-0.1,0.2-0.2,0.4-0.2,0.5L58,79.2c-0.1,0.2-0.2,0.4-0.2,0.5l-0.2,0.4c-0.1,0.2-0.2,0.3-0.2,0.4
		l-0.2,0.4L57,81.4l-0.2,0.2c-0.1,0.2-0.2,0.4-0.2,0.6l-0.2,0.2c-0.1,0.2-0.2,0.4-0.2,0.6L56,83.4l-0.2,0.4l-0.2,0.4l-0.2,0.5
		l-0.1,0.2V85c-0.1,0.2-0.2,0.4-0.3,0.6l-0.1,0.2c-0.1,0.2-0.2,0.4-0.2,0.6l-0.1,0.2v0.1c-0.1,0.2-0.2,0.4-0.2,0.6l-0.1,0.1
		l-0.1,0.2v0.9l-0.1,0.2L54,88.8c-0.1,0.2-0.1,0.4-0.2,0.6l-0.1,0.1l-0.1,0.2v0.1L53.5,90l-0.1,0.2l-0.1,0.2l-0.1,0.3
		c-0.1,0.2-0.1,0.3-0.2,0.4l0.2,0.4v0.1C53.1,91.8,53,92,53,92.3l-0.1,0.3c-0.1,0.2-0.2,0.4-0.2,0.6l-0.1,0.2
		c-0.1,0.2-0.2,0.4-0.2,0.7l-0.1,0.2c-1.1,4.2-1.9,8.4-2.3,12.8v0.1c-0.2,2.2-0.2,4.5-0.2,6.7c0,2.7,0.1,5.1,0.4,7.7v0.2v0.4
		l0.1,0.1c0,0.2,0,0.4,0.1,0.7v0.3v0.1c0.1,0.2,0.1,0.4,0.1,0.7l0.1,0.2v0.1c0,0.2,0.1,0.4,0.1,0.7v0.1l0.1,0.2l0.1,0.5v0.2v0.1
		c0.1,0.2,0.1,0.4,0.2,0.7v0.2c1.4,7.9,3.9,15.4,7.5,22.2h0.1c0.1,0.2,0.2,0.4,0.3,0.7l0.2,0.2v0.1c0.1,0.1,0.2,0.3,0.3,0.5l0.2,0.3
		l0.2,0.4l0.2,0.2l0.1,0.1c0.1,0.2,0.2,0.4,0.3,0.6l0.2,0.2v0.1c0.2,0.1,0.2,0.3,0.3,0.4l1,1.7v-0.1c3.1,4.9,6.7,9.4,10.7,13.5
		c13.9,13.9,33.1,22.6,54.3,22.6s40.4-8.6,54.3-22.6c13.9-13.9,22.5-33.1,22.5-54.3C203.6,92.6,195,73.4,181.1,59.4z M192.9,77
		c2.4,4.2,4.3,8.7,5.8,13.3c1.7,5.1,2.8,10.3,3.3,15.7h-9.1V77L192.9,77z M60.6,77v29.1h-9.1C52.6,95.5,55.7,85.8,60.6,77z
		 M51.6,122.6h9v27.9C55.9,142.1,52.7,132.7,51.6,122.6z M198.6,137.7c-1.5,4.5-3.4,8.8-5.7,12.8v-27.9h9.1
		C201.4,127.8,200.3,132.9,198.6,137.7z M192.4,121.5L192.4,121.5h-0.5v0.5v30.6c-3.2,5.4-7.1,10.3-11.5,14.8
		c-13.8,13.7-32.7,22.2-53.6,22.2s-39.9-8.5-53.6-22.2c-4.4-4.5-8.2-9.5-11.5-14.8v-30.5v-0.5h-0.5h-9.8c-0.2-2.6-0.4-5.1-0.4-7.7
		c0-2.2,0.2-4.5,0.3-6.7h9.9h0.5v-0.5V75c3.2-5.4,7.1-10.4,11.5-14.8C86.9,46.4,105.9,38,126.8,38s39.8,8.5,53.6,22.2
		c4.4,4.4,8.2,9.3,11.5,14.8v31.5v0.5h0.5h9.8c0.1,2.2,0.3,4.5,0.3,6.7c0,2.7-0.1,5.1-0.4,7.7h-9.7V121.5z"/>
	<circle class="st0" cx="88" cy="113.8" r="11"/>
	<circle class="st0" cx="165.6" cy="113.8" r="11"/>
	<path class="st0" d="M238.4,41.9C206,15.2,172.6,3.5,126.8,2.9c-58,0.8-90.1,21.3-111.6,39c-7.1,5.9-10.8,15.6-10.9,29L4.2,352.5
		c0.2,13.3,3.8,23,11,28.9c21.5,17.8,53.6,38.3,111.7,39c45.8-0.6,79.1-12.2,111.5-39c7.1-5.9,10.8-15.6,11-29V70.9
		C249.2,57.6,245.5,47.8,238.4,41.9z M8.4,352.5L8.5,70.9c0.1-12,3.3-20.7,9.4-25.7c4.7-3.9,9.5-7.5,14.3-10.7v354.4
		c-4.8-3.2-9.5-6.8-14.3-10.7C11.8,373.1,8.6,364.5,8.4,352.5z M34.2,390.3V33.1C61,15.6,89.7,7.7,126.8,7.2
		c27.2,0.3,58.9,4,92.5,26v357.2c-20.8,13.8-48.9,25.3-92.5,25.9C89.7,415.8,61,407.9,34.2,390.3z M245.1,352.5
		c-0.1,12-3.3,20.6-9.4,25.7c-4.4,3.6-9.1,7.2-14.2,10.8V34.6c4.7,3.2,9.4,6.7,14.2,10.6c6.1,5.1,9.3,13.7,9.4,25.7V352.5z"/>
</g>
<g>
	<path class="st0" d="M139.4,348.3h-25.3c-4.2,0-7.6-3.4-7.6-7.6s3.4-7.6,7.6-7.6h25.3c4.2,0,7.6,3.4,7.6,7.6
		C147.1,344.9,143.6,348.3,139.4,348.3z M114.1,335.2c-3,0-5.5,2.5-5.5,5.5s2.5,5.5,5.5,5.5h25.3c3,0,5.5-2.5,5.5-5.5
		s-2.5-5.5-5.5-5.5H114.1z"/>
</g>
<g>
	<path class="st1" d="M114.2,335.1h25.2c1.5,0,2.9,0.6,4,1.6c1,1,1.6,2.4,1.6,4c0,1.5-0.6,3-1.6,4s-2.4,1.6-4,1.6h-25.2
		c-1.5,0-2.9-0.6-4-1.6s-1.7-2.4-1.7-4c0-1.5,0.6-3,1.7-4C111.3,335.7,112.7,335.1,114.2,335.1"/>
</g>
<path d="M223.1,334c5.1,1.2,10.1,2.5,15.2,3.7c0.8,0.2,1.7,0.4,2.5,0.6c0.3,0.1,0.4,0.2,0.4,0.4c0,4.3,0,8.6,0,13
	c0,0.2,0,0.5-0.1,0.8c-0.1,0.6-0.5,1.2-1,1.3c-0.4,0.1-1.2-0.1-1.3-0.1c-2.7-0.6-5.4-1.3-8.1-1.9c-1.1-0.3-1.8-0.9-2-1.9
	c-0.1-0.4-0.1-0.9-0.1-1.3c0-3,0-6.1,0-9.1c0-0.3-0.1-0.5-0.4-0.5c-1.7-0.4-3.4-0.8-5.2-1.2C223.1,336.3,223.1,335.2,223.1,334z
	 M239.1,345.8c0-1.2,0-2.4,0-3.7c0-0.6-0.1-0.7-0.7-0.9c-2.3-0.6-4.5-1.1-6.7-1.6c-0.6-0.2-0.7-0.1-0.7,0.5c0,2.4,0,4.9,0,7.3
	c0,0.6,0.1,0.8,0.7,0.9c2.2,0.6,4.5,1.1,6.7,1.6c0.6,0.1,0.7,0,0.7-0.5C239.1,348.2,239.1,347,239.1,345.8z"/>
<path d="M239.1,319.2c0.7,0.2,1.2,0.3,1.8,0.4c0.3,0,0.3,0.2,0.3,0.4c0,1.3,0,2.7,0,4c0,2.9,0,5.8,0,8.7c0,0.4,0,0.8-0.2,1.2
	c-0.2,0.6-0.7,1-1.4,1c-0.4,0-0.9-0.1-1.3-0.2c-2.5-0.6-4.9-1.2-7.4-1.8c-1.3-0.3-2-1-2.2-2.3c0-0.4-0.1-0.7-0.1-1.1
	c0-3.5,0-6.9,0-10.4c0-0.2,0-0.3,0-0.5c0.1-1.3,0.9-1.9,2.3-1.6c1.7,0.4,3.4,0.8,5.1,1.2c0.3,0.1,0.3,0.2,0.3,0.4c0,1.6,0,3.1,0,4.7
	c0,2.3,0,4.6,0,6.9c0,0.3,0.1,0.5,0.4,0.6c0.4,0.1,0.9,0.2,1.3,0.3c0.7,0.2,0.8,0.1,0.8-0.6c0-1,0-2.1,0-3.2c0-2.6,0-5.1,0-7.8
	C239.1,319.6,239.1,319.4,239.1,319.2z M234.7,330.4c0-0.1,0-0.2,0-0.2c0-2.7,0-5.5,0-8.2c0-0.1-0.2-0.3-0.3-0.3
	c-1-0.2-2-0.5-2.9-0.7c-0.4-0.1-0.6,0-0.6,0.4c0,2.5,0,5.1,0,7.6c0,0.3,0.2,0.6,0.5,0.7C232.5,329.8,233.6,330.1,234.7,330.4z"/>
<path d="M241.2,262.8c0,1.8,0,3.6,0,5.4c0,0.4-0.1,0.8-0.2,1.2c-0.2,0.6-0.7,0.9-1.3,0.8c-0.4,0-0.8,0-1.2-0.1
	c-2.4-0.6-4.9-1.2-7.3-1.8c-1.8-0.4-2.4-1.1-2.4-2.8c0-3.8,0-7.5,0-11.3c0-0.3,0-0.5,0.1-0.8c0.2-0.6,0.7-1,1.3-1
	c0.4,0,0.9,0,1.3,0.1c2.5,0.6,4.9,1.2,7.4,1.8c0.1,0,0.3,0.1,0.4,0.1c1.2,0.3,1.9,1,1.9,2.1C241.2,258.8,241.2,260.8,241.2,262.8
	C241.2,262.8,241.1,262.8,241.2,262.8z M230.9,260.5c0,1.2,0,2.5,0,3.7c0,0.6,0.1,0.8,0.7,0.9c2.3,0.6,4.5,1.1,6.8,1.6
	c0.5,0.1,0.7,0,0.7-0.4c0-2.5,0-5.1,0-7.6c0-0.4-0.2-0.6-0.7-0.8c-2.3-0.6-4.5-1.1-6.8-1.6c-0.5-0.1-0.7,0-0.7,0.5
	C230.9,258,230.9,259.3,230.9,260.5z"/>
<path d="M241.2,295.2c0,1.8,0,3.5,0,5.3c0,0.2,0,0.4,0,0.6c-0.2,1.4-1,2-2.4,1.6c-2-0.4-3.9-1-5.9-1.4c-0.6-0.1-1.1-0.3-1.6-0.4
	c-1.7-0.4-2.4-1.2-2.5-2.9c0-3.7,0-7.4,0-11.2c0-1.5,0.9-2.1,2.5-1.8c0,0,0.1,0,0.2,0c2.6,0.6,5.1,1.2,7.6,1.8
	c0.2,0,0.4,0.1,0.7,0.2c0.9,0.3,1.4,0.9,1.5,1.8c0,0.5,0.1,0.9,0.1,1.4C241.2,291.9,241.2,293.5,241.2,295.2z M239.1,294.9
	c0-1.2,0-2.5,0-3.7c0-0.6-0.1-0.7-0.7-0.8c-2.2-0.6-4.4-1.1-6.6-1.6c-0.7-0.2-0.7-0.1-0.7,0.5c0,2.4,0,4.8,0,7.2
	c0,0.8,0,0.9,0.9,1.1c2.2,0.5,4.3,1,6.5,1.6c0.6,0.2,0.7,0.1,0.7-0.5C239.1,297.3,239.1,296.1,239.1,294.9z"/>
<path d="M228.7,315.7c0-0.8,0-1.6,0-2.5c0-1,0-1,1.1-1.3c2.5-0.5,5-1,7.5-1.5c0.1,0,0.2,0,0.3-0.1c-0.2-0.1-0.3-0.2-0.4-0.3
	c-2.7-1.6-5.5-3.3-8.2-4.9c-0.3-0.2-0.4-0.4-0.4-0.7c0-0.9,0-1.7,0-2.7c0.2,0.1,0.3,0.2,0.4,0.2c3.9,2.5,7.8,4.9,11.7,7.4
	c0.3,0.2,0.3,0.3,0.3,0.6c0,0.8,0,1.6,0,2.5c0,0.3-0.1,0.5-0.4,0.5c-3.5,0.8-7,1.5-10.5,2.3C229.8,315.5,229.3,315.6,228.7,315.7z"
	/>
<path d="M228.7,277.4c1.7,0.4,3.4,0.8,5,1.2c1.6,0.4,3.1,0.8,4.7,1.2c0.5,0.1,0.6,0.1,0.6-0.4c0-2.5,0-4.9,0-7.4c0-0.2,0-0.3,0-0.5
	c0.7,0.2,1.3,0.3,2,0.5c0.1,0,0.2,0.3,0.2,0.4c0,2.9,0,5.8,0,8.7c0,0.5,0,1,0,1.5c0,1-0.6,1.4-1.7,1.2c-3.5-0.8-6.9-1.7-10.4-2.5
	c-0.3-0.1-0.4-0.2-0.4-0.4C228.7,279.7,228.7,278.6,228.7,277.4z"/>
</svg>
